<svg xmlns="http://www.w3.org/2000/svg" viewBox="0 0 64 64" fill="none" role="img" aria-labelledby="title desc">
  <title id="title">AKALA Tools mark</title>
  <desc id="desc">Geometric hexagon mark for AKALA Tools.</desc>
  <path d="M32 6 54 18.5v25L32 56 10 43.5v-25L32 6Z" stroke="currentColor" stroke-width="3.2" stroke-linejoin="round"/>
  <path d="M32 31 10 18.5M32 31l22-12.5M32 31v25" stroke="currentColor" stroke-width="3.2" stroke-linecap="round" stroke-linejoin="round"/>
  <path d="M13.5 34.5c0-3.6 2.4-6 5.8-6h8.2v20.2l-7.1-4.6h-1.1c-3.4 0-5.8-2.3-5.8-5.7v-3.9Z" fill="currentColor"/>
  <path d="M44 28.8c-2.5 0-4.6 2-4.6 4.6s2.1 4.6 4.6 4.6c1.8 0 3.4-1.1 4.1-2.6V45l-16.1 9V31l22-12.5v10.3h-9.9Z" fill="currentColor" opacity=".08"/>
  <path d="M21.5 35.5h.01M26.5 35.5h.01" stroke="white" stroke-width="3.5" stroke-linecap="round"/>
</svg>
